:SAMPLES-PER-SECOND 30
:FULLY-SPECIFIED
:DEGREES
160
root  -26.384 22.7274 16.7416 20.3551 18.9524 4.84738
RightUpLeg  -56.0499 0.239489 -39.899
RightLeg  74.8044 1.24476 3.39486
RightFoot  -23.0765 0.316596 1.92834
RightToes  -63.1613 -0.424594 -0.407431
Spine  19.6376 2.07281 5.8822
Spine1  33.3394 6.92639 5.45193
HEad  5.86849 20.2996 -23.5271
LeftShoulder1  0 -2.42657e-020 -4.95415e-022
LeftArm  -24.7066 -22.7573 -96.4929
LeftForeArm  16.7415 -40.8301 -8.76551
LeftHand  -0.0115619 -6.35753 -0.161952
RightShoulder  0 2.42657e-020 1.07489e-018
RightArm  -65.893 37.0421 49.5704
RightForeArm  37.2956 20 3.66714
RightHand  -0.832807 23.7119 -3.59648
LeftUpLeg  -55.6765 -0.415608 38.8948
LeftLeg  56.2694 -7.20515 -9.32107
LeftFoot  -0.500417 -0.0139085 -3.18407
LeftToes  -66.3344 2.01279e-006 2.21547e-008
161
root  -24.2709 23.0005 16.3652 19.4368 18.3379 4.65939
RightUpLeg  -51.3265 1.31403 -42.8992
RightLeg  68.1494 1.03154 2.00927
RightFoot  -17.8084 0.301091 2.29927
RightToes  -66.1094 -0.452939 -0.410855
Spine  18.721 0.995434 5.27026
Spine1  32.2292 5.19361 3.49147
HEad  5.78794 24.6507 -25.1264
LeftShoulder1  0 -2.42657e-020 -4.95415e-022
LeftArm  -27.6296 -18.8486 -95.1223
LeftForeArm  18.2098 -43.1446 -9.51818
LeftHand  -0.0547012 -6.46155 0.599738
RightShoulder  0 2.42657e-020 1.07489e-018
RightArm  -59.0385 33.3189 51.2111
RightForeArm  20.0531 26.5785 5.05683
RightHand  0.694608 23.8369 3.661
LeftUpLeg  -53.5764 4.84772 32.6358
LeftLeg  55.9524 -9.66055 -12.2462
LeftFoot  -10.6596 -0.00257586 -0.0276199
LeftToes  -64.2776 2.01279e-006 2.21547e-008
162
root  -22.2238 23.5758 15.9686 18.1549 17.1936 3.82374
RightUpLeg  -48.1367 6.33089 -44.9966
RightLeg  62.7611 -1.82263 -3.14307
RightFoot  -9.14598 0.226812 3.21295
RightToes  -64.6219 -0.438603 -0.408353
Spine  18.23 0.0431613 4.55042
Spine1  31.5954 3.40508 1.86818
HEad  5.39585 28.0672 -26.0422
LeftShoulder1  0 -2.42657e-020 -4.95415e-022
LeftArm  -31.8925 -16.2592 -94.994
LeftForeArm  19.6797 -43.8654 -9.76513
LeftHand  -0.0626602 -6.65582 0.708341
RightShoulder  0 2.42657e-020 1.07489e-018
RightArm  -53.2954 30.7941 52.8627
RightForeArm  23.6348 34.9174 7.07092
RightHand  0.232212 23.441 1.48966
LeftUpLeg  -55.3794 4.76901 29.6584
LeftLeg  62.056 -8.80427 -13.9686
LeftFoot  -12.0341 0.0823325 0.781084
LeftToes  -65.1891 2.01279e-006 2.21547e-008
163
root  -20.5331 24.4423 15.5533 17.434 13.5878 1.89992
RightUpLeg  -49.2491 9.86189 -43.2817
RightLeg  60.1579 -6.48209 -9.75037
RightFoot  -3.72819 0.0832391 2.93525
RightToes  -46.1571 -0.269441 -0.347196
Spine  17.8315 0.0694638 3.43654
Spine1  31.0366 2.6043 1.26159
HEad  4.2075 30.1607 -27.2356
LeftShoulder1  0 -2.42657e-020 -4.95415e-022
LeftArm  -35.6884 -15.0175 -95.3572
LeftForeArm  18.254 -43.4093 -9.60794
LeftHand  -0.0702543 -6.37046 0.893404
RightShoulder  0 2.42657e-020 1.07489e-018
RightArm  -46.8117 28.9484 54.3544
RightForeArm  23.7126 45.111 10.2122
RightHand  -0.106901 24.0961 -0.130881
LeftUpLeg  -54.087 4.96749 28.1198
LeftLeg  63.912 -7.15358 -12.2939
LeftFoot  -13.4206 0.128566 1.09269
LeftToes  -62.6546 2.01279e-006 2.21547e-008
164
root  -19.3004 25.3641 15.1957 16.2908 11.0133 -0.394464
RightUpLeg  -49.0026 7.85071 -36.0136
RightLeg  58.8744 -6.13968 -8.82031
RightFoot  -5.99977 0.126133 2.78437
RightToes  -44.4773 -0.255201 -0.338992
Spine  17.1619 -0.160985 2.16309
Spine1  30.1156 1.53627 0.138898
HEad  3.96694 33.4133 -26.6795
LeftShoulder1  0 -2.42657e-020 -4.95415e-022
LeftArm  -39.2507 -12.6306 -94.1627
LeftForeArm  16.7302 -43.9364 -9.7882
LeftHand  -0.0621419 -5.65538 0.889203
RightShoulder  0 2.42657e-020 1.07489e-018
RightArm  -37.1486 26.5714 59.4209
RightForeArm  35.7895 56.4933 15.502
RightHand  -1.39559 24.7421 -5.98809
LeftUpLeg  -52.0538 5.41555 27.3451
LeftLeg  63.6693 -6.17652 -10.5629
LeftFoot  -14.0172 0.157983 1.28501
LeftToes  -59.6833 2.01279e-006 2.21547e-008
165
root  -18.4038 26.2353 14.8816 15.761 10.4361 -1.32202
RightUpLeg  -48.4373 3.31121 -27.6925
RightLeg  61.3044 -2.07986 -3.37001
RightFoot  -12.0091 0.183429 2.12141
RightToes  -48.5297 -0.289951 -0.358066
Spine  16.6018 -0.742688 0.817753
Spine1  29.2237 0.186789 -1.76862
HEad  4.44636 35.5905 -24.0114
LeftShoulder1  0 -2.42657e-020 -4.95415e-022
LeftArm  -41.8879 -10.2556 -92.1734
LeftForeArm  15.9418 -45.3867 -10.3037
LeftHand  -0.0736952 -5.46647 1.17511
RightShoulder  0 2.42657e-020 1.07489e-018
RightArm  -26.1592 24.314 65.8631
RightForeArm  54.9212 66.9409 24.6008
RightHand  -3.09988 24.5185 -13.8299
LeftUpLeg  -51.6361 5.78099 25.8737
LeftLeg  63.2151 -6.51082 -10.9219
LeftFoot  -11.5968 0.128795 1.26826
LeftToes  -59.904 2.01279e-006 2.21547e-008
166
root  -17.6201 26.8619 14.5827 15.4914 10.5647 -1.41114
RightUpLeg  -47.7693 -1.69499 -20.6599
RightLeg  65.9798 2.53771 4.69251
RightFoot  -15.6916 -0.0949046 -0.311183
RightToes  -56.47 -0.361529 -0.388104
Spine  16.4241 -0.743911 -0.475392
Spine1  28.8722 0.334737 -3.86819
HEad  5.96657 35.3403 -19.5637
LeftShoulder1  0 -2.42657e-020 -4.95415e-022
LeftArm  -43.3178 -9.28973 -91.1232
LeftForeArm  15.6266 -47.0786 -10.9414
LeftHand  -0.0619242 -5.62294 0.892052
RightShoulder  0 2.42657e-020 1.07489e-018
RightArm  -18.3196 22.876 71.3067
RightForeArm  72.1563 71.7839 32.5813
RightHand  -4.08689 24.7775 -18.0868
LeftUpLeg  -52.8478 7.01947 24.3336
LeftLeg  64.7653 -8.68718 -15.3042
LeftFoot  -7.58673 0.0840216 1.26716
LeftToes  -60.8588 2.01279e-006 2.21547e-008
167
root  -16.8403 27.0874 14.2396 15.3763 11.5923 -0.596234
RightUpLeg  -46.6031 -6.95607 -16.8887
RightLeg  71.2361 4.02949 9.47711
RightFoot  -18.0386 -0.385802 -2.05274
RightToes  -58.6678 -0.382013 -0.39464
Spine  16.379 -0.452967 -1.3754
Spine1  28.6847 1.10049 -5.0399
HEad  8.27444 33.033 -14.1443
LeftShoulder1  0 -2.42657e-020 -4.95415e-022
LeftArm  -43.3836 -9.43999 -91.8668
LeftForeArm  15.9509 -48.0167 -11.3137
LeftHand  -0.0597054 -5.3859 0.900521
RightShoulder  0 2.42657e-020 1.07489e-018
RightArm  -12.5732 22.6304 73.7989
RightForeArm  79.8443 72.6397 34.5018
RightHand  -4.84836 23.9168 -22.2428
LeftUpLeg  -55.0294 5.88266 24.1541
LeftLeg  67.1975 -12.096 -22.8234
LeftFoot  -4.49869 0.0430035 1.09479
LeftToes  -61.6522 2.01279e-006 2.21547e-008
168
root  -16.2007 26.8552 13.775 16.0605 11.8857 -0.251586
RightUpLeg  -47.0629 -8.46189 -15.4988
RightLeg  75.4673 2.78082 8.13991
RightFoot  -18.0917 -0.282957 -1.39968
RightToes  -55.8797 -0.356071 -0.391717
Spine  15.9596 0.704521 -1.75968
Spine1  27.7765 3.49266 -4.9489
HEad  10.6149 28.1884 -9.46512
LeftShoulder1  0 -2.42657e-020 -4.95415e-022
LeftArm  -41.5098 -9.90522 -93.9811
LeftForeArm  15.642 -48.1378 -11.3625
LeftHand  -0.102003 -5.76813 1.65653
RightShoulder  0 2.42657e-020 1.07489e-018
RightArm  -9.77504 22.6445 74.0498
RightForeArm  79.0183 69.9161 28.9108
RightHand  -5.89545 23.7974 -27.1022
LeftUpLeg  -56.6887 3.98997 27.0277
LeftLeg  64.851 -11.8688 -20.4993
LeftFoot  -5.35933 0.0595454 1.27219
LeftToes  -58.5863 2.01279e-006 2.21547e-008
169
root  -15.8624 26.2309 13.0578 18.0025 12.1176 -3.10612
RightUpLeg  -49.8387 -6.24187 -13.1426
RightLeg  75.798 1.2026 3.46141
RightFoot  -19.4695 -0.0486184 0.0941579
RightToes  -56.6399 -0.363103 -0.388637
Spine  15.0988 2.73894 -0.590356
Spine1  26.3766 7.27378 -2.15478
HEad  9.73211 22.0227 -6.60512
LeftShoulder1  0 -2.42657e-020 -4.95415e-022
LeftArm  -37.1227 -11.2635 -97.3794
LeftForeArm  14.9001 -47.5494 -11.1257
LeftHand  -0.157925 -6.58009 2.37924
RightShoulder  0 2.42657e-020 1.07489e-018
RightArm  -9.61208 23.7526 70.5608
RightForeArm  74.6274 64.2885 21.487
RightHand  -6.29921 23.3902 -29.4105
LeftUpLeg  -59.4438 3.94656 35.273
LeftLeg  59.7748 -11.8986 -17.063
LeftFoot  -7.5105 0.10874 1.65661
LeftToes  -50.4076 2.01279e-006 2.21547e-008
170
root  -15.091 25.2247 12.5471 19.6787 11.2157 -5.14259
RightUpLeg  -52.4682 -3.86268 -14.4068
RightLeg  75.9435 1.32898 3.88427
RightFoot  -22.5594 -0.0762455 -0.00472662
RightToes  -58.6318 -0.381675 -0.394539
Spine  14.9383 5.48261 0.22759
Spine1  26.0869 12.9422 -0.358977
HEad  7.52561 14.3497 -2.97305
LeftShoulder1  0 -2.42657e-020 -4.95415e-022
LeftArm  -30.3425 -13.8032 -100.005
LeftForeArm  15.5956 -46.2508 -10.6241
LeftHand  -0.161646 -7.25333 2.18206
RightShoulder  0 2.42657e-020 1.07489e-018
RightArm  -11.6265 26.5409 66.0448
RightForeArm  65.6169 51.6403 12.8374
RightHand  -6.14508 22.8351 -29.4067
LeftUpLeg  -60.6523 2.97692 43.2744
LeftLeg  58.4934 -17.5087 -23.115
LeftFoot  -3.27117 0.0068946 0.241448
LeftToes  -54.5044 2.01279e-006 2.21547e-008
171
root  -13.4372 23.8141 12.1856 18.5708 11.2674 -3.71477
RightUpLeg  -51.7993 -5.65474 -20.6807
RightLeg  78.5408 2.00338 7.03816
RightFoot  -24.9974 -0.22328 -0.629707
RightToes  -62.9521 -0.422594 -0.405102
Spine  17.4657 7.27782 1.05505
Spine1  29.9685 17.6508 0.598926
HEad  6.71582 6.2417 0.803111
LeftShoulder1  0 -2.42657e-020 -4.95415e-022
LeftArm  -22.3014 -19.0519 -104.039
LeftForeArm  16.3037 -43.9292 -9.78543
LeftHand  -0.239197 -7.24656 3.40938
RightShoulder  0 2.42657e-020 1.07489e-018
RightArm  -16.9239 32.3605 58.4744
RightForeArm  59.4254 39.2161 8.22998
RightHand  -4.58926 23.0253 -21.8951
LeftUpLeg  -63.2504 -2.1489 45.2808
LeftLeg  62.8381 -17.2442 -26.4112
LeftFoot  -9.07341 0.254067 3.20117
LeftToes  -72.0919 2.01279e-006 2.21547e-008
172
root  -11.3165 22.5827 11.9037 16.1962 9.6301 0.413983
RightUpLeg  -48.8297 -6.40369 -31.1067
RightLeg  78.9069 3.07998 11.1912
RightFoot  -26.6232 -0.45191 -1.53231
RightToes  -67.3646 -0.465084 -0.412676
Spine  21.975 8.32406 1.20954
Spine1  36.8813 20.8074 1.43833
HEad  5.87925 -2.5691 3.27893
LeftShoulder1  0 -2.42657e-020 -4.95415e-022
LeftArm  -13.9654 -25.8951 -109.206
LeftForeArm  15.5092 -40.4901 -8.65893
LeftHand  -0.194767 -6.99527 2.8186
RightShoulder  0 2.42657e-020 1.07489e-018
RightArm  -25.8422 39.782 47.1428
RightForeArm  52.0049 25.7957 4.8545
RightHand  -2.59144 24.0616 -11.7493
LeftUpLeg  -65.3711 -4.54518 37.6327
LeftLeg  70.0899 -11.216 -24.0218
LeftFoot  -16.5946 0.760045 5.2081
LeftToes  -68.693 2.01279e-006 2.21547e-008
173
root  -9.22231 22.1311 11.4648 15.1974 3.07382 3.58408
RightUpLeg  -49.8847 -2.48421 -40.6641
RightLeg  74.6118 5.28497 14.7058
RightFoot  -24.345 -0.548845 -2.16654
RightToes  -71.1963 -0.502362 -0.416584
Spine  25.4855 10.0324 0.239615
Spine1  42.4133 23.2812 2.74917
HEad  3.37241 -9.88117 3.05822
LeftShoulder1  0 -2.42657e-020 -4.95415e-022
LeftArm  -6.87877 -32.1553 -114.642
LeftForeArm  14.3171 -36.3575 -7.45343
LeftHand  -0.125426 -7.1577 1.63683
RightShoulder  0 2.42657e-020 1.07489e-018
RightArm  -36.0518 43.3615 34.4356
RightForeArm  41.476 18.6612 3.39706
RightHand  -0.46721 25.6006 -1.68657
LeftUpLeg  -65.3829 -5.10137 31.2977
LeftLeg  76.3236 -7.19155 -21.8462
LeftFoot  -19.5574 0.830925 4.81847
LeftToes  -66.8043 2.01279e-006 2.21547e-008
